<svg id="svg" version="1.1" xmlns="http://www.w3.org/2000/svg" xmlns:xlink="http://www.w3.org/1999/xlink" width="400" height="400" viewBox="0, 0, 400,400"><g id="svgg"><path id="path0" d="M53.379 50.880 C 31.099 73.160,12.933 91.556,13.009 91.760 C 13.086 91.963,33.898 113.265,59.259 139.098 C 114.780 195.651,109.439 189.542,109.442 196.489 C 109.446 203.433,113.954 198.352,58.832 253.534 L 10.721 301.699 48.390 338.349 C 69.108 358.507,88.208 377.071,90.834 379.602 L 95.609 384.205 147.619 332.195 L 199.630 280.186 251.574 332.081 C 294.817 375.282,303.678 383.968,304.471 383.932 C 305.293 383.895,387.872 304.285,389.441 302.016 C 389.729 301.601,379.695 291.356,343.304 254.909 C 300.656 212.196,296.702 208.134,295.627 205.926 C 292.349 199.197,292.607 191.882,296.340 185.723 C 297.074 184.512,314.177 166.806,342.668 137.762 L 387.831 91.721 347.157 51.046 C 313.860 17.748,306.307 10.370,305.512 10.370 C 304.719 10.370,294.942 19.846,252.202 62.037 C 223.416 90.454,199.762 113.704,199.639 113.704 C 199.515 113.704,175.870 90.454,147.095 62.037 C 118.320 33.620,94.577 10.370,94.333 10.370 C 94.088 10.370,75.659 28.600,53.379 50.880 M141.390 78.966 C 243.316 179.644,241.426 177.759,243.370 180.719 C 249.221 189.631,250.029 200.472,245.540 209.815 L 244.117 212.778 169.695 287.178 L 95.274 361.577 66.989 334.072 C 51.432 318.945,37.538 305.423,36.114 304.024 L 33.524 301.480 76.174 258.796 C 121.416 213.517,121.132 213.822,123.437 208.065 C 126.314 200.877,126.256 191.736,123.286 184.582 C 121.074 179.251,119.745 177.790,83.704 141.055 C 64.657 121.642,46.000 102.620,42.244 98.785 L 35.413 91.811 64.835 62.387 C 81.018 46.204,94.383 32.963,94.537 32.963 C 94.691 32.963,115.775 53.664,141.390 78.966 M363.611 91.936 C 363.560 92.085,345.685 110.398,323.889 132.631 C 294.723 162.381,284.285 173.251,284.356 173.797 C 284.409 174.206,283.852 175.445,283.118 176.551 C 275.332 188.281,275.328 204.247,283.108 216.273 C 284.376 218.233,284.752 219.100,284.460 219.392 C 284.168 219.683,295.411 231.151,324.897 260.638 L 365.738 301.480 362.036 305.128 C 347.702 319.254,305.008 360.575,304.660 360.660 C 304.424 360.718,283.418 339.915,257.980 314.432 L 211.729 268.099 215.587 264.142 C 217.709 261.967,227.868 251.686,238.163 241.297 C 254.962 224.345,257.049 222.108,258.511 219.488 C 265.770 206.477,266.173 190.962,259.609 177.222 C 256.348 170.398,255.746 169.718,233.055 147.199 L 211.759 126.064 258.565 79.708 L 305.370 33.351 334.537 62.508 C 350.579 78.545,363.662 91.787,363.611 91.936 " stroke="none" fill="#1cccd4" fill-rule="evenodd"></path><path id="path1" d="M64.835 62.387 L 35.413 91.811 42.244 98.785 C 46.000 102.620,64.657 121.642,83.704 141.055 C 119.745 177.790,121.074 179.251,123.286 184.582 C 126.256 191.736,126.314 200.877,123.437 208.065 C 121.132 213.822,121.416 213.517,76.174 258.796 L 33.524 301.480 36.114 304.024 C 37.538 305.423,51.432 318.945,66.989 334.072 L 95.274 361.577 169.695 287.178 L 244.117 212.778 245.540 209.815 C 249.129 202.347,249.378 194.346,246.274 186.296 C 244.021 180.455,243.434 179.806,214.753 151.453 C 131.169 68.823,94.786 32.963,94.537 32.963 C 94.383 32.963,81.018 46.204,64.835 62.387 M258.565 79.708 L 211.759 126.064 233.055 147.199 C 255.746 169.718,256.348 170.398,259.609 177.222 C 266.173 190.962,265.770 206.477,258.511 219.488 C 257.049 222.108,254.962 224.345,238.163 241.297 C 227.868 251.686,217.709 261.967,215.587 264.142 L 211.729 268.099 257.980 314.432 C 283.418 339.915,304.424 360.718,304.660 360.660 C 305.008 360.575,347.702 319.254,362.036 305.128 L 365.738 301.480 324.897 260.638 C 295.411 231.151,284.168 219.683,284.460 219.392 C 284.752 219.100,284.376 218.233,283.108 216.273 C 275.328 204.247,275.332 188.281,283.118 176.551 C 283.852 175.445,284.409 174.206,284.356 173.797 C 284.285 173.251,294.723 162.381,323.889 132.631 C 345.685 110.398,363.560 92.085,363.611 91.936 C 363.662 91.787,350.579 78.545,334.537 62.508 L 305.370 33.351 258.565 79.708 " stroke="none" fill="#f9f9f9" fill-rule="evenodd"></path></g></svg>